<svg width="24.000000" height="24.000000" viewBox="0 0 24 24" fill="none" xmlns="http://www.w3.org/2000/svg" xmlns:xlink="http://www.w3.org/1999/xlink">
	<desc>
			Created with Pixso.
	</desc>
	<defs/>
	<rect id="check" width="24.000000" height="24.000000" fill="#FFFFFF" fill-opacity="0"/>
	<path id="Vector" d="M11.96 4.85C13.37 4.85 14.75 5.27 15.93 6.06C17.1 6.84 18.02 7.96 18.56 9.26C19.1 10.57 19.24 12 18.96 13.39C18.69 14.77 18.01 16.05 17.01 17.04C16.01 18.04 14.74 18.72 13.35 19C11.97 19.27 10.53 19.13 9.23 18.59C7.92 18.05 6.81 17.14 6.02 15.96C5.24 14.79 4.82 13.41 4.82 12C4.83 10.1 5.58 8.29 6.92 6.95C8.26 5.62 10.07 4.86 11.96 4.85ZM11.96 3.27C10.23 3.27 8.55 3.79 7.12 4.76C5.69 5.72 4.58 7.08 3.92 8.68C3.27 10.28 3.1 12.03 3.44 13.72C3.78 15.41 4.61 16.96 5.84 18.18C7.06 19.4 8.61 20.22 10.31 20.56C12 20.89 13.75 20.72 15.34 20.05C16.94 19.39 18.3 18.27 19.25 16.84C20.21 15.41 20.72 13.72 20.72 12C20.72 10.85 20.5 9.71 20.05 8.65C19.61 7.59 18.97 6.62 18.15 5.81C17.34 5 16.37 4.36 15.31 3.92C14.25 3.49 13.11 3.26 11.96 3.27Z" fill="#4EA8DE" fill-opacity="1.000000" fill-rule="nonzero"/>
</svg>
