<svg width="89.945068" height="29.492188" viewBox="0 0 89.9451 29.4922" fill="none" xmlns="http://www.w3.org/2000/svg" xmlns:xlink="http://www.w3.org/1999/xlink">
	<desc>
			Created with Pixso.
	</desc>
	<defs/>
	<path id="todo" d="M56.3 25.5C55.39 27.72 53.29 29.37 50.22 29.37C45.56 29.37 41.64 25.74 41.64 18.18C41.64 10.28 45.84 6.99 50.17 6.99C53.4 6.99 55.45 8.86 56.3 11.08L56.42 11.08L56.42 0L64.25 0L64.25 29.09L56.47 29.09L56.47 25.5L56.3 25.5ZM89.94 18.24C89.94 24.94 85.73 29.49 78.63 29.49C71.53 29.49 67.32 24.94 67.32 18.24C67.32 11.53 71.53 6.99 78.63 6.99C85.73 6.99 89.94 11.53 89.94 18.24ZM75.34 18.18C75.34 21.6 76.59 23.69 78.69 23.69C80.67 23.69 81.92 21.6 81.92 18.18C81.92 14.75 80.67 12.67 78.69 12.67C76.59 12.67 75.34 14.75 75.34 18.18ZM49.71 18.18C49.71 21.42 50.96 23.34 53.12 23.34C55.28 23.34 56.59 21.36 56.59 18.18C56.59 14.94 55.28 13 53.12 13C50.96 13 49.71 14.94 49.71 18.18Z" fill="#5E60CE" fill-opacity="1.000000" fill-rule="evenodd"/>
	<path id="todo" d="M10.62 7.27L14.37 7.27L14.37 12.95L10.62 12.95L10.62 22.07C10.62 22.98 11.08 23.43 12.09 23.43C12.56 23.43 13.33 23.28 13.63 23.21L14.77 28.72C14.06 28.93 12.74 29.3 10.96 29.4C5.55 29.7 2.72 27.38 2.78 22.81L2.78 12.95L0 12.95L0 7.27L2.78 7.27L2.78 2.05L10.62 2.05L10.62 7.27ZM39.14 18.24C39.14 24.94 34.94 29.49 27.84 29.49C20.74 29.49 16.53 24.94 16.53 18.24C16.53 11.53 20.74 6.99 27.84 6.99C34.94 6.99 39.14 11.53 39.14 18.24ZM24.54 18.18C24.54 21.6 25.79 23.69 27.89 23.69C29.88 23.69 31.13 21.6 31.13 18.18C31.13 14.75 29.88 12.67 27.89 12.67C25.79 12.67 24.54 14.75 24.54 18.18Z" fill="#4EA8DE" fill-opacity="1.000000" fill-rule="evenodd"/>
</svg>
